<svg preserveAspectRatio="none" width="100%" height="100%" overflow="visible" style="display: block;" viewBox="0 0 65 52" fill="none" xmlns="http://www.w3.org/2000/svg">
<g id="isotipo">
<path id="Vector 11" d="M22.4 0.0443726L8.88892 0.0444594V8.57779L14.1097 8.57774C16.1572 8.57772 18.0467 9.67793 19.0573 11.4586L32.3556 34.8888C32.3556 34.8888 40.4121 20.5738 45.6539 11.4223C46.664 9.65865 48.541 8.57771 50.5734 8.57771H55.8223V0.0443726H42.3111L32.3556 17.2879L22.4 0.0443726Z" fill="var(--fill-0, black)"/>
<path id="Vector 12" d="M8.88892 8.57758L0.355591 8.57766V17.111L3.91115 17.1109L19.4608 44.3229C22.1578 49.0426 27.177 51.9554 32.613 51.9554C38.1742 51.9554 43.3132 48.9908 46.0793 44.1663C53.2484 31.6624 61.5111 17.1109 61.5111 17.1109L64.3556 17.111V8.57766L55.8223 8.57758L37.6752 40.3349C36.5844 42.2439 34.5543 43.422 32.3556 43.422C30.1569 43.422 28.1268 42.2439 27.036 40.3349L8.88892 8.57758Z" fill="var(--fill-0, black)"/>
</g>
</svg>
