<svg preserveAspectRatio="none" width="100%" height="100%" overflow="visible" style="display: block;" viewBox="0 0 706 166.449" fill="none" xmlns="http://www.w3.org/2000/svg">
<g id="logo">
<g id="vertek">
<path d="M61.9299 164.105C54.7024 164.105 48.1724 159.791 45.3361 153.143L0 46.887H22.8574L61.9754 140.887C62.0662 141.105 62.2791 141.247 62.5153 141.247C62.7521 141.247 62.9656 141.104 63.0559 140.885L101.784 46.887H123.86L78.5238 153.143C75.6874 159.791 69.1574 164.105 61.9299 164.105Z" fill="var(--fill-0, #E6E6E6)"/>
<path d="M190.24 166.449C177.998 166.449 167.383 163.974 158.396 159.025C149.41 153.946 142.442 146.782 137.492 137.535C132.674 128.288 130.264 117.478 130.264 105.105C130.264 92.7321 132.674 82.0522 137.492 73.0656C142.442 63.9486 149.344 56.9156 158.201 51.9664C167.057 47.0172 177.412 44.5427 189.264 44.5427C200.595 44.5427 210.363 46.8219 218.568 51.3803C226.903 55.9388 233.35 62.3858 237.909 70.7212C242.467 79.0567 244.746 88.9551 244.746 100.416V109.208H151.363C152.014 121.45 155.726 131.023 162.499 137.926C169.402 144.698 178.584 148.085 190.045 148.085C197.99 148.085 204.697 146.457 210.167 143.201C215.637 139.814 219.414 134.865 221.498 128.353H243.77C240.904 140.466 234.718 149.843 225.21 156.485C215.833 163.128 204.176 166.449 190.24 166.449ZM152.145 93.1879H223.647C222.605 83.55 219.024 76.0611 212.902 70.7212C206.911 65.3813 198.967 62.7114 189.068 62.7114C179.3 62.7114 171.16 65.3813 164.648 70.7212C158.136 76.0611 153.968 83.55 152.145 93.1879Z" fill="var(--fill-0, #E6E6E6)"/>
<path d="M276.92 164.105V69.549H265.589V46.887H289.033V68.7676H297.238C300.494 61.6043 305.508 56.0039 312.281 51.9664C319.184 47.9289 327.259 45.9102 336.506 45.9102H346.079V64.665H335.334C323.612 64.665 314.56 68.1164 308.178 75.0192C301.796 81.922 298.605 91.2343 298.605 102.956V164.105H276.92Z" fill="var(--fill-0, #E6E6E6)"/>
<path d="M395.838 164.105C389.586 164.105 384.702 162.542 381.186 159.416C377.8 156.16 376.106 151.341 376.106 144.959V63.6882H354.226V46.887H376.302V11.7217H397.792V46.887H428.464V63.6882H397.987V146.913H431.589V164.105H395.838Z" fill="var(--fill-0, #E6E6E6)"/>
<path d="M505.491 166.449C493.249 166.449 482.634 163.974 473.647 159.025C464.661 153.946 457.693 146.782 452.743 137.535C447.924 128.288 445.515 117.478 445.515 105.105C445.515 92.7321 447.924 82.0522 452.743 73.0656C457.693 63.9486 464.595 56.9156 473.452 51.9664C482.308 47.0172 492.663 44.5427 504.515 44.5427C515.846 44.5427 525.614 46.8219 533.819 51.3803C542.154 55.9388 548.601 62.3858 553.16 70.7212C557.718 79.0567 559.997 88.9551 559.997 100.416V109.208H466.614C467.265 121.45 470.977 131.023 477.75 137.926C484.653 144.698 493.835 148.085 505.296 148.085C513.241 148.085 519.948 146.457 525.418 143.201C530.888 139.814 534.665 134.865 536.749 128.353H559.021C556.155 140.466 549.969 149.843 540.461 156.485C531.084 163.128 519.427 166.449 505.491 166.449ZM467.396 93.1879H538.898C537.856 83.55 534.275 76.0611 528.153 70.7212C522.162 65.3813 514.218 62.7114 504.319 62.7114C494.551 62.7114 486.411 65.3813 479.899 70.7212C473.387 76.0611 469.219 83.55 467.396 93.1879Z" fill="var(--fill-0, #E6E6E6)"/>
<path d="M584.943 164.105V0H606.823V99.6349H607.605L664.065 46.887H690.829L637.105 95.3369L695.323 164.105H668.753L622.257 108.817L606.823 121.32V164.105H584.943Z" fill="var(--fill-0, #E6E6E6)"/>
</g>
</g>
</svg>
