<svg preserveAspectRatio="none" width="100%" height="100%" overflow="visible" style="display: block;" viewBox="0 0 56 13" fill="none" xmlns="http://www.w3.org/2000/svg">
<g id="Frame 8">
<g id="vertek">
<path d="M4.98772 12.8169C4.40446 12.8169 3.87631 12.4723 3.64142 11.9384L0 3.66197H1.84089L4.99107 11.0028C4.99858 11.0203 5.01581 11.0317 5.03486 11.0317C5.05398 11.0317 5.07125 11.0203 5.07872 11.0027L8.19748 3.66197H9.97544L6.33403 11.9384C6.09914 12.4723 5.57098 12.8169 4.98772 12.8169Z" fill="var(--fill-0, black)"/>
<path d="M15.3216 13C14.3356 13 13.4807 12.8067 12.7569 12.4202C12.0332 12.0235 11.472 11.464 11.0734 10.7418C10.6853 10.0196 10.4912 9.17527 10.4912 8.20892C10.4912 7.24257 10.6853 6.40845 11.0734 5.70657C11.472 4.99452 12.0279 4.44523 12.7412 4.05868C13.4545 3.67214 14.2884 3.47887 15.2429 3.47887C16.1555 3.47887 16.9422 3.65689 17.6031 4.01291C18.2744 4.36894 18.7936 4.87246 19.1607 5.52347C19.5279 6.17449 19.7114 6.94757 19.7114 7.84272V8.52934H12.1905C12.243 9.48552 12.5419 10.2332 13.0874 10.7723C13.6433 11.3013 14.3828 11.5657 15.3059 11.5657C15.9457 11.5657 16.4859 11.4386 16.9265 11.1843C17.367 10.9198 17.6712 10.5333 17.8391 10.0246H19.6328C19.402 10.9707 18.9037 11.7031 18.138 12.2218C17.3828 12.7406 16.444 13 15.3216 13ZM12.2534 7.27817H18.0121C17.9282 6.52543 17.6398 5.94053 17.1468 5.52347C16.6643 5.10642 16.0244 4.89789 15.2272 4.89789C14.4405 4.89789 13.7849 5.10642 13.2604 5.52347C12.736 5.94053 12.4003 6.52543 12.2534 7.27817Z" fill="var(--fill-0, black)"/>
<path d="M22.3026 12.8169V5.43192H21.3901V3.66197H23.2782V5.37089H23.939C24.2012 4.81142 24.6051 4.37402 25.1505 4.05868C25.7065 3.74335 26.3568 3.58568 27.1016 3.58568H27.8725V5.05047H27.0072C26.0631 5.05047 25.3341 5.32003 24.8201 5.85915C24.3061 6.39828 24.0491 7.12559 24.0491 8.04108V12.8169H22.3026Z" fill="var(--fill-0, black)"/>
<path d="M31.8801 12.8169C31.3766 12.8169 30.9832 12.6948 30.7 12.4507C30.4273 12.1964 30.2909 11.82 30.2909 11.3216V4.97418H28.5287V3.66197H30.3066V0.915492H32.0374V3.66197H34.5077V4.97418H32.0531V11.4742H34.7594V12.8169H31.8801Z" fill="var(--fill-0, black)"/>
<path d="M40.7113 13C39.7253 13 38.8704 12.8067 38.1467 12.4202C37.4229 12.0235 36.8617 11.464 36.4631 10.7418C36.075 10.0196 35.881 9.17527 35.881 8.20892C35.881 7.24257 36.075 6.40845 36.4631 5.70657C36.8617 4.99452 37.4177 4.44523 38.1309 4.05868C38.8442 3.67214 39.6781 3.47887 40.6327 3.47887C41.5452 3.47887 42.332 3.65689 42.9928 4.01291C43.6641 4.36894 44.1833 4.87246 44.5505 5.52347C44.9176 6.17449 45.1012 6.94757 45.1012 7.84272V8.52934H37.5802C37.6327 9.48552 37.9316 10.2332 38.4771 10.7723C39.033 11.3013 39.7725 11.5657 40.6956 11.5657C41.3355 11.5657 41.8757 11.4386 42.3162 11.1843C42.7568 10.9198 43.061 10.5333 43.2288 10.0246H45.0225C44.7917 10.9707 44.2935 11.7031 43.5277 12.2218C42.7725 12.7406 41.8337 13 40.7113 13ZM37.6432 7.27817H43.4019C43.318 6.52543 43.0295 5.94053 42.5365 5.52347C42.054 5.10642 41.4141 4.89789 40.6169 4.89789C39.8302 4.89789 39.1746 5.10642 38.6502 5.52347C38.1257 5.94053 37.79 6.52543 37.6432 7.27817Z" fill="var(--fill-0, black)"/>
<path d="M47.1102 12.8169V0H48.8724V7.78169H48.9354L53.4825 3.66197H55.6381L51.3112 7.44601L56 12.8169H53.8602L50.1154 8.49883L48.8724 9.47535V12.8169H47.1102Z" fill="var(--fill-0, black)"/>
</g>
</g>
</svg>
